####
#
# OBJ File Generated by Meshlab
#
####
# Object plane_n.obj
#
# Vertices: 25
# Faces: 32
#
####
vn 0.000000 1.441820 -0.623342
v 1.000000 -0.000000 -1.000000
vn 0.000000 1.441820 0.623342
v 1.000000 0.000000 1.000000
vn 0.000000 1.441820 0.623342
v -1.000000 0.000000 1.000000
vn 0.000000 1.441820 -0.623342
v -1.000000 -0.000000 -1.000000
vn 0.000000 2.883641 1.246684
v 0.000000 0.000000 1.000000
vn 0.000000 2.883638 -0.000000
v 1.000000 0.432331 0.000000
vn 0.000000 2.883641 -1.246684
v 0.000000 -0.000000 -1.000000
vn 0.000000 2.883638 0.000000
v -1.000000 0.432331 -0.000000
vn 0.000000 5.767277 0.000000
v 0.000000 0.432331 -0.000000
vn 0.000000 2.883641 1.246684
v 0.500000 0.000000 1.000000
vn 0.000000 2.883641 1.246684
v -0.500000 0.000000 1.000000
vn 0.000000 2.883640 -1.246687
v 1.000000 0.216165 -0.500000
vn 0.000000 2.883639 1.246687
v 1.000000 0.216165 0.500000
vn 0.000000 2.883641 -1.246684
v 0.500000 -0.000000 -1.000000
vn 0.000000 2.883641 -1.246684
v -0.500000 -0.000000 -1.000000
vn 0.000000 2.883640 1.246687
v -1.000000 0.216165 0.500000
vn 0.000000 2.883639 -1.246687
v -1.000000 0.216165 -0.500000
vn 0.000000 5.767277 0.000000
v -0.500000 0.432331 -0.000000
vn 0.000000 5.767279 -2.493373
v 0.000000 0.216165 -0.500000
vn 0.000000 5.767277 0.000000
v 0.500000 0.432331 -0.000000
vn 0.000000 5.767279 2.493373
v 0.000000 0.216165 0.500000
vn 0.000000 5.767279 -2.493373
v -0.500000 0.216165 -0.500000
vn 0.000000 5.767279 -2.493373
v 0.500000 0.216165 -0.500000
vn 0.000000 5.767279 2.493373
v -0.500000 0.216165 0.500000
vn 0.000000 5.767279 2.493373
v 0.500000 0.216165 0.500000
# 25 vertices, 0 vertices normals

f 15//15 4//4 17//17
f 7//7 15//15 22//22
f 22//22 17//17 8//8
f 19//19 22//22 18//18
f 14//14 7//7 19//19
f 1//1 14//14 23//23
f 23//23 19//19 9//9
f 12//12 23//23 20//20
f 18//18 8//8 16//16
f 9//9 18//18 24//24
f 24//24 16//16 3//3
f 21//21 24//24 11//11
f 20//20 9//9 21//21
f 6//6 20//20 25//25
f 25//25 21//21 5//5
f 13//13 25//25 10//10
f 15//15 17//17 22//22
f 7//7 22//22 19//19
f 22//22 8//8 18//18
f 19//19 18//18 9//9
f 14//14 19//19 23//23
f 1//1 23//23 12//12
f 23//23 9//9 20//20
f 12//12 20//20 6//6
f 18//18 16//16 24//24
f 9//9 24//24 21//21
f 24//24 3//3 11//11
f 21//21 11//11 5//5
f 20//20 21//21 25//25
f 6//6 25//25 13//13
f 25//25 5//5 10//10
f 13//13 10//10 2//2
# 32 faces, 0 coords texture

# End of File
